<!DOCTYPE svg PUBLIC "-//W3C//DTD SVG 1.1//EN" "http://www.w3.org/Graphics/SVG/1.1/DTD/svg11.dtd">
<!-- Uploaded to: SVG Repo, www.svgrepo.com, Transformed by: SVG Repo Mixer Tools -->
<svg height="800px" width="800px" version="1.1" id="_x32_" xmlns="http://www.w3.org/2000/svg" xmlns:xlink="http://www.w3.org/1999/xlink" viewBox="0 0 512 512" xml:space="preserve" fill="#ffffff" stroke="#ffffff">
<g id="SVGRepo_bgCarrier" stroke-width="0"/>
<g id="SVGRepo_tracerCarrier" stroke-linecap="round" stroke-linejoin="round"/>
<g id="SVGRepo_iconCarrier"> <style type="text/css"> .st0{fill:#ffffff;} </style> <g> <polygon class="st0" points="0.682,68.727 78.721,68.727 0,167.707 0,184.835 151.173,184.835 151.173,139.892 76.551,139.892 152.882,43.926 152.882,23.783 0.682,23.783 "/> <polygon class="st0" points="180.246,220.417 258.285,220.417 179.554,319.398 179.554,336.527 330.727,336.527 330.727,291.583 256.105,291.583 332.436,195.608 332.436,175.474 180.246,175.474 "/> <polygon class="st0" points="512,327.165 359.8,327.165 359.8,372.109 437.839,372.109 359.118,471.089 359.118,488.217 510.281,488.217 510.281,443.274 435.669,443.274 512,347.308 "/> </g> </g>
</svg>